<svg width="0" height="0" class="screen-reader-text" aria-hidden="true"><symbol id="person-email"><path fill="currentColor" d="M0 5.076c0-1.158.927-2.118 2.118-2.118h12.708c1.158 0 2.117.96 2.117 2.118v8.472c0 1.191-.96 2.118-2.117 2.118H2.118A2.09 2.09 0 0 1 0 13.548V5.076Zm1.588 0v.761l5.692 4.667a1.846 1.846 0 0 0 2.35 0l5.725-4.667v-.76c0-.265-.265-.53-.53-.53H2.119a.544.544 0 0 0-.53.53Zm0 2.813v5.66c0 .297.232.529.53.529h12.708c.264 0 .53-.232.53-.53V7.89l-4.7 3.839a3.446 3.446 0 0 1-4.401 0L1.588 7.889Z"></symbol><symbol id="person-linkedin"><path fill="currentColor" d="M13.767 2.9H1.026C.463 2.9 0 3.395 0 3.99v12.675c0 .596.463 1.059 1.026 1.059h12.74c.563 0 1.06-.463 1.06-1.059V3.991c0-.595-.497-1.092-1.06-1.092Zm-9.3 12.707H2.284V8.558h2.185v7.049ZM3.376 7.565c-.728 0-1.29-.562-1.29-1.257 0-.695.562-1.29 1.29-1.29.695 0 1.258.595 1.258 1.29 0 .695-.563 1.257-1.258 1.257Zm9.333 8.042H10.49v-3.442c0-.794 0-1.853-1.125-1.853-1.158 0-1.323.894-1.323 1.82v3.475H5.857V8.558h2.085v.96h.033c.298-.563 1.026-1.158 2.085-1.158 2.217 0 2.648 1.489 2.648 3.375v3.872Z"></symbol><symbol id="person-twitter"><path fill="currentColor" d="M15.19 6.87a7.359 7.359 0 0 0 1.72-1.786 6.512 6.512 0 0 1-1.985.529 3.395 3.395 0 0 0 1.522-1.92 7.339 7.339 0 0 1-2.184.861 3.475 3.475 0 0 0-2.548-1.092A3.474 3.474 0 0 0 8.24 6.937c0 .264.033.53.1.794a10.082 10.082 0 0 1-7.182-3.64 3.38 3.38 0 0 0-.463 1.754c0 1.191.596 2.25 1.555 2.879-.562-.033-1.125-.166-1.588-.43v.033a3.479 3.479 0 0 0 2.78 3.408 3.878 3.878 0 0 1-.894.133c-.232 0-.43-.034-.662-.067a3.458 3.458 0 0 0 3.243 2.416 6.986 6.986 0 0 1-4.302 1.49c-.298 0-.562-.034-.827-.067 1.522.993 3.342 1.555 5.328 1.555 6.387 0 9.862-5.261 9.862-9.861V6.87Z"></symbol></svg>
