<svg xmlns="http://www.w3.org/2000/svg" x="0" y="0" width="372" height="359" fill="#F2F2F2"><path d="m300.177 30.673-3.196-3.961-5.123.237c-.619 0-63.159 2.674-88.326-22.073L198.616.035l-86.23 39.135C71.679 57.654 45.377 98.109 45.377 142.254v130.674h-2.063c-13.959 0-27.54-2.707-40.295-7.988l-9.214-3.826L-14 279.259l9.214 3.825c15.231 6.331 31.424 9.547 48.065 9.547h2.063v65.168c0 28.302 22.76 51.729 50.712 52.236h.963c13.615 0 26.439-5.146 36.204-14.558 9.971-9.647 15.472-22.546 15.472-36.324h-20.01c0 8.43-3.37 16.317-9.489 22.241-6.12 5.892-14.166 9.039-22.761 8.938-17.122-.304-31.046-14.895-31.046-32.533v-67.064a123.701 123.701 0 0 0 34.931-11.746c-8.629 22.14-13.064 45.465-13.064 69.332v10.935h20.01V348.32c0-37.577 11.621-72.48 34.588-103.965.722-.947 1.41-1.896 2.097-2.844a216.444 216.444 0 0 1 9.971-12.221c19.013-21.666 38.302-34.835 45.005-39.101 9.145 6.297 20.526 11.646 34.725 14.524l6.567 1.32 3.748-5.451c.138-.203 14.027-20.21 34.726-40.15 18.394-17.671 46.07-38.965 73.506-39.981l19.771-.711-71.823-89.068h.032zM231.482 183.86c-35.377-10.19-46.001-40.252-46.448-41.572l-19.047 6.093c.343 1.016 4.951 14.49 17.465 28.234-9.695 6.602-26.886 19.601-44.18 39.169-4.229 4.807-8.251 9.716-11.964 14.76-15.094 20.617-37.167 34.733-61.921 40.048V142.22c0-36.46 21.729-69.908 55.354-85.176l73.989-33.583c28.123 21.937 76.808 23.46 92.897 23.291l45.728 56.705c-47.619 12.458-88.944 63.136-101.873 80.368v.035z"/><path d="M122.013 130.438h-20.01v22.444h20.01v-22.444z"/></svg>
