<svg xmlns="http://www.w3.org/2000/svg" width="187" height="199"><path opacity=".5" fill="#A14E11" d="m152.205 14.888-1.549-1.923-2.482.115c-.3 0-30.597 1.298-42.79-10.713l-2.382-2.35-41.773 18.995c-19.721 8.972-32.463 28.607-32.463 50.034v63.425h-1a50.722 50.722 0 0 1-19.521-3.878l-4.464-1.856L0 135.543l4.464 1.857c7.379 3.072 15.224 4.634 23.286 4.634h.999v31.63c0 13.736 11.027 25.107 24.568 25.354h.466c6.596 0 12.809-2.498 17.539-7.065 4.83-4.683 7.495-10.943 7.495-17.632h-9.694c0 4.093-1.632 7.921-4.597 10.797-2.965 2.859-6.862 4.387-11.026 4.338-8.295-.148-15.041-7.23-15.041-15.791v-32.551a59.858 59.858 0 0 0 16.923-5.701c-4.181 10.746-6.33 22.066-6.33 33.65v5.309h9.694v-5.309c0-18.238 5.63-35.179 16.756-50.46.35-.46.683-.92 1.017-1.38a104.526 104.526 0 0 1 4.83-5.932c9.211-10.517 18.555-16.908 21.803-18.979 4.431 3.056 9.943 5.652 16.822 7.049l3.183.641 1.815-2.645c.066-.099 6.795-9.81 16.822-19.488 8.911-8.577 22.318-18.912 35.611-19.405l9.576-.345-34.795-43.23h.019zM118.926 89.24c-17.139-4.946-22.286-19.537-22.502-20.178l-9.229 2.958c.167.493 2.398 7.033 8.462 13.704-4.697 3.204-13.025 9.514-21.403 19.011-2.049 2.334-3.998 4.716-5.796 7.164-7.313 10.007-18.005 16.859-29.998 19.438V69.029c0-17.697 10.527-33.931 26.816-41.341l35.844-16.3c13.625 10.647 37.21 11.387 45.006 11.305l22.151 27.522c-23.068 6.047-43.088 30.645-49.352 39.008v.017z"/><path opacity=".5" fill="#A14E11" d="M65.892 63.311h-9.694v10.894h9.694V63.311z"/></svg>
