<svg width="600" height="648" viewBox="0 0 600 648" fill="none" xmlns="http://www.w3.org/2000/svg">
<g opacity="0.5" clip-path="url(#clip0_1185_2675)">
<path opacity="0.972" fill-rule="evenodd" clip-rule="evenodd" d="M328.5 -0.5C329.5 -0.5 330.5 -0.5 331.5 -0.5C343.237 13.5469 357.903 23.3802 375.5 29C410.751 39.5079 446.751 43.8412 483.5 42C522.031 90.6874 560.697 139.187 599.5 187.5C599.5 188.167 599.5 188.833 599.5 189.5C564.624 186.719 532.624 194.885 503.5 214C460.37 244.129 424.37 281.129 395.5 325C371.991 322.219 350.324 314.386 330.5 301.5C267.664 342.844 224.164 399.178 200 470.5C190.831 502.186 186.998 534.52 188.5 567.5C177.833 567.5 167.167 567.5 156.5 567.5C154.45 524.848 160.783 483.514 175.5 443.5C175.167 443.167 174.833 442.833 174.5 442.5C158.353 450.271 141.519 455.938 124 459.5C123.333 497.167 123.333 534.833 124 572.5C130.565 601.685 148.732 615.852 178.5 615C204.836 609.498 218.836 593.332 220.5 566.5C231.167 566.5 241.833 566.5 252.5 566.5C249.889 611.442 226.556 638.442 182.5 647.5C175.833 647.5 169.167 647.5 162.5 647.5C122.742 639.574 99.242 615.574 92 575.5C91.5 537.835 91.3333 500.168 91.5 462.5C59.1581 462.633 28.4914 455.633 -0.5 441.5C-0.5 440.167 -0.5 438.833 -0.5 437.5C3.68477 429.121 7.35144 420.455 10.5 411.5C25.3494 417.95 40.6827 423.117 56.5 427C68.0823 429.038 79.749 430.204 91.5 430.5C91.3333 356.166 91.5 281.833 92 207.5C100.836 139.354 136.003 90.1878 197.5 60C241.481 40.2949 285.147 20.1282 328.5 -0.5ZM323.5 37.5C339.533 49.1815 357.199 57.6815 376.5 63C406.683 70.6063 437.35 74.6063 468.5 75C491.691 104.023 514.691 133.19 537.5 162.5C507.282 173.103 479.949 188.603 455.5 209C427.859 233.471 402.859 260.304 380.5 289.5C346.574 278.407 322.741 256.407 309 223.5C299.214 226.907 289.381 230.24 279.5 233.5C279.167 233.833 278.833 234.167 278.5 234.5C285.101 250.882 294.101 265.715 305.5 279C268.361 304.806 236.861 336.306 211 373.5C187.597 400.213 158.597 417.88 124 426.5C123.333 354.833 123.333 283.167 124 211.5C131.875 152.908 162.708 111.408 216.5 87C252.396 70.7681 288.063 54.2681 323.5 37.5Z" fill="#E87722"/>
<path opacity="0.962" fill-rule="evenodd" clip-rule="evenodd" d="M179.5 205.5C190.167 205.5 200.833 205.5 211.5 205.5C211.5 217.5 211.5 229.5 211.5 241.5C200.833 241.5 190.167 241.5 179.5 241.5C179.5 229.5 179.5 217.5 179.5 205.5Z" fill="#E87722"/>
</g>
<defs>
<clipPath id="clip0_1185_2675">
<rect width="600" height="648" fill="white"/>
</clipPath>
</defs>
</svg>
