<svg width="200" height="216" viewBox="0 0 200 216" fill="none" xmlns="http://www.w3.org/2000/svg">
<g clip-path="url(#clip0_29_227)">
<mask id="mask0_29_227" style="mask-type:luminance" maskUnits="userSpaceOnUse" x="0" y="0" width="200" height="216">
<path d="M200 0H0V216H200V0Z" fill="white"/>
</mask>
<g mask="url(#mask0_29_227)">
<g opacity="0.5">
<path opacity="0.972" fill-rule="evenodd" clip-rule="evenodd" d="M109.5 -0.166504C109.833 -0.166504 110.166 -0.166504 110.5 -0.166504C114.412 4.5158 119.301 7.79356 125.166 9.66683C136.917 13.1695 148.917 14.6139 161.166 14.0002C174.01 30.2293 186.899 46.3958 199.833 62.5002C199.833 62.7225 199.833 62.9445 199.833 63.1668C188.208 62.2398 177.541 64.9618 167.833 71.3335C153.456 81.3765 141.456 93.7098 131.833 108.333C123.997 107.406 116.774 104.795 110.166 100.5C89.221 114.282 74.721 133.06 66.6663 156.834C63.61 167.396 62.3323 178.174 62.833 189.167C59.2773 189.167 55.722 189.167 52.1663 189.167C51.483 174.95 53.594 161.172 58.4997 147.834C58.3887 147.723 58.2773 147.611 58.1663 147.5C52.784 150.091 47.1727 151.98 41.333 153.167C41.1107 165.723 41.1107 178.278 41.333 190.834C43.5213 200.562 49.577 205.284 59.4997 205C68.2783 203.166 72.945 197.778 73.4997 188.834C77.0553 188.834 80.6107 188.834 84.1663 188.834C83.296 203.814 75.5183 212.814 60.833 215.834C58.6107 215.834 56.3887 215.834 54.1663 215.834C40.9137 213.192 33.0803 205.192 30.6663 191.834C30.4997 179.279 30.4441 166.723 30.4997 154.167C19.719 154.211 9.49681 151.878 -0.166992 147.167C-0.166992 146.723 -0.166992 146.278 -0.166992 145.834C1.22793 143.041 2.45015 140.152 3.49967 137.167C8.44947 139.317 13.5606 141.039 18.833 142.334C22.6938 143.013 26.5827 143.402 30.4997 143.5C30.4441 118.722 30.4997 93.9445 30.6663 69.1668C33.6117 46.4515 45.334 30.0628 65.833 20.0002C80.4933 13.4318 95.0487 6.70956 109.5 -0.166504ZM107.833 12.5002C113.177 16.394 119.066 19.2273 125.5 21.0002C135.561 23.5356 145.783 24.8689 156.166 25.0002C163.897 34.6745 171.563 44.3968 179.166 54.1668C169.094 57.7012 159.983 62.8678 151.833 69.6668C142.619 77.8238 134.286 86.7682 126.833 96.5002C115.524 92.8025 107.58 85.4692 103 74.5002C99.7377 75.6358 96.46 76.7468 93.1663 77.8335C93.0553 77.9445 92.944 78.0558 92.833 78.1668C95.0333 83.6275 98.0333 88.5718 101.833 93.0002C89.4533 101.602 78.9533 112.102 70.333 124.5C62.532 133.404 52.8653 139.294 41.333 142.167C41.1107 118.278 41.1107 94.3892 41.333 70.5002C43.958 50.9695 54.2357 37.1362 72.1663 29.0002C84.1317 23.5895 96.0207 18.0895 107.833 12.5002Z" fill="#E87722"/>
<path opacity="0.962" fill-rule="evenodd" clip-rule="evenodd" d="M59.833 68.5C63.3887 68.5 66.944 68.5 70.4997 68.5C70.4997 72.5 70.4997 76.5 70.4997 80.5C66.944 80.5 63.3887 80.5 59.833 80.5C59.833 76.5 59.833 72.5 59.833 68.5Z" fill="#E87722"/>
</g>
</g>
</g>
<defs>
<clipPath id="clip0_29_227">
<rect width="200" height="216" fill="white"/>
</clipPath>
</defs>
</svg>
