<svg xmlns="http://www.w3.org/2000/svg" width="36" height="16"><path fill="#EC7217" d="M10 14.5c.25 0 .5-.22.5-.5v-1H12v1c0 1.13-.91 2-2 2H2c-1.13 0-2-.88-2-2v-1h1.5v1c0 .28.22.5.5.5h8zM8 5c-.56 0-1-.44-1-1V1.5H2c-.28 0-.5.25-.5.5v4H0V2a2 2 0 0 1 2-2h5.16c.53 0 1.03.22 1.41.59l2.84 2.84c.37.38.59.88.59 1.41V6h-1.5V5H8zM2.75 7c.94 0 1.75.81 1.75 1.75 0 .97-.81 1.75-1.75 1.75H2.5v1c0 .28-.25.5-.5.5-.28 0-.5-.22-.5-.5v-4c0-.25.22-.5.5-.5h.75zm.75 1.75c0-.41-.34-.75-.75-.75H2.5v1.5h.25c.41 0 .75-.31.75-.75zM5 7.5c0-.25.22-.5.5-.5h.75c.81 0 1.5.69 1.5 1.5v2c0 .84-.69 1.5-1.5 1.5H5.5c-.28 0-.5-.22-.5-.5v-4zM6 11h.25c.25 0 .5-.22.5-.5v-2c0-.25-.25-.5-.5-.5H6v3zm4.5-4c.25 0 .5.25.5.5 0 .28-.25.5-.5.5h-1v1h1c.25 0 .5.25.5.5 0 .28-.25.5-.5.5h-1v1.5c0 .28-.25.5-.5.5-.28 0-.5-.22-.5-.5v-4c0-.25.22-.5.5-.5h1.5z"/><path fill="#505759" d="M22 14.5c.25 0 .5-.22.5-.5v-1H24v1c0 1.13-.91 2-2 2h-8c-1.13 0-2-.88-2-2v-1h1.5v1c0 .28.22.5.5.5h8zM20 5c-.56 0-1-.44-1-1V1.5h-5c-.28 0-.5.25-.5.5v4H12V2a2 2 0 0 1 2-2h5.16c.53 0 1.03.22 1.41.59l2.84 2.84c.37.38.59.88.59 1.41V6h-1.5V5H20zm-5.25 2c.94 0 1.75.81 1.75 1.75 0 .97-.81 1.75-1.75 1.75h-.25v1c0 .28-.25.5-.5.5-.28 0-.5-.22-.5-.5v-4c0-.25.22-.5.5-.5h.75zm.75 1.75c0-.41-.34-.75-.75-.75h-.25v1.5h.25c.41 0 .75-.31.75-.75zM17 7.5c0-.25.22-.5.5-.5h.75c.81 0 1.5.69 1.5 1.5v2c0 .84-.69 1.5-1.5 1.5h-.75c-.28 0-.5-.22-.5-.5v-4zm1 3.5h.25c.25 0 .5-.22.5-.5v-2c0-.25-.25-.5-.5-.5H18v3zm4.5-4c.25 0 .5.25.5.5 0 .28-.25.5-.5.5h-1v1h1c.25 0 .5.25.5.5 0 .28-.25.5-.5.5h-1v1.5c0 .28-.25.5-.5.5-.28 0-.5-.22-.5-.5v-4c0-.25.22-.5.5-.5h1.5z"/><path fill="#FFF" d="M34 14.5c.25 0 .5-.22.5-.5v-1H36v1c0 1.13-.91 2-2 2h-8c-1.13 0-2-.88-2-2v-1h1.5v1c0 .28.22.5.5.5h8zM32 5c-.56 0-1-.44-1-1V1.5h-5c-.28 0-.5.25-.5.5v4H24V2a2 2 0 0 1 2-2h5.16c.53 0 1.03.22 1.41.59l2.84 2.84c.37.38.59.88.59 1.41V6h-1.5V5H32zm-5.25 2c.94 0 1.75.81 1.75 1.75 0 .97-.81 1.75-1.75 1.75h-.25v1c0 .28-.25.5-.5.5-.28 0-.5-.22-.5-.5v-4c0-.25.22-.5.5-.5h.75zm.75 1.75c0-.41-.34-.75-.75-.75h-.25v1.5h.25c.41 0 .75-.31.75-.75zM29 7.5c0-.25.22-.5.5-.5h.75c.81 0 1.5.69 1.5 1.5v2c0 .84-.69 1.5-1.5 1.5h-.75c-.28 0-.5-.22-.5-.5v-4zm1 3.5h.25c.25 0 .5-.22.5-.5v-2c0-.25-.25-.5-.5-.5H30v3zm4.5-4c.25 0 .5.25.5.5 0 .28-.25.5-.5.5h-1v1h1c.25 0 .5.25.5.5 0 .28-.25.5-.5.5h-1v1.5c0 .28-.25.5-.5.5-.28 0-.5-.22-.5-.5v-4c0-.25.22-.5.5-.5h1.5z"/></svg>
