<svg xmlns="http://www.w3.org/2000/svg" width="42" height="10"><path fill="#EC7217" d="M3 4c-.37 0-.69.09-1 .19V4a2 2 0 0 1 2-2c.53 0 1-.44 1-1 0-.53-.47-1-1-1-2.22 0-4 1.81-4 4v3c0 1.69 1.31 3 3 3 1.66 0 3-1.31 3-3 0-1.66-1.34-3-3-3zm8 0c-.38 0-.69.09-1 .19V4a2 2 0 0 1 2-2c.53 0 1-.44 1-1 0-.53-.47-1-1-1-2.22 0-4 1.81-4 4v3c0 1.69 1.31 3 3 3 1.66 0 3-1.31 3-3 0-1.66-1.34-3-3-3z"/><path fill="#505759" d="M17 4c-.38 0-.69.09-1 .19V4a2 2 0 0 1 2-2c.53 0 1-.44 1-1 0-.53-.47-1-1-1-2.22 0-4 1.81-4 4v3c0 1.69 1.31 3 3 3 1.66 0 3-1.31 3-3 0-1.66-1.34-3-3-3zm8 0c-.38 0-.69.09-1 .19V4a2 2 0 0 1 2-2c.53 0 1-.44 1-1 0-.53-.47-1-1-1-2.22 0-4 1.81-4 4v3c0 1.69 1.31 3 3 3 1.66 0 3-1.31 3-3 0-1.66-1.34-3-3-3z"/><path fill="#FFF" d="M31 4c-.38 0-.69.09-1 .19V4a2 2 0 0 1 2-2c.53 0 1-.44 1-1 0-.53-.47-1-1-1-2.22 0-4 1.81-4 4v3c0 1.69 1.31 3 3 3 1.66 0 3-1.31 3-3 0-1.66-1.34-3-3-3zm8 0c-.38 0-.69.09-1 .19V4a2 2 0 0 1 2-2c.53 0 1-.44 1-1 0-.53-.47-1-1-1-2.22 0-4 1.81-4 4v3c0 1.69 1.31 3 3 3 1.66 0 3-1.31 3-3 0-1.66-1.34-3-3-3z"/></svg>
