<svg xmlns="http://www.w3.org/2000/svg" width="48" height="16"><path fill="#EC7217" d="M8 16c4.41 0 8-3.56 8-8 0-4.41-3.59-8-8-8-4.44 0-8 3.59-8 8 0 4.44 3.56 8 8 8zm-1.25-5.5h.75v-2h-.75c-.44 0-.75-.31-.75-.75 0-.41.31-.75.75-.75h1.5c.41 0 .75.34.75.75v2.75h.25c.41 0 .75.34.75.75 0 .44-.34.75-.75.75h-2.5c-.44 0-.75-.31-.75-.75 0-.41.31-.75.75-.75zM8 6c-.56 0-1-.44-1-1 0-.53.44-1 1-1 .53 0 1 .47 1 1 0 .56-.47 1-1 1z"/><path fill="#505759" d="M24 16c4.41 0 8-3.56 8-8 0-4.41-3.59-8-8-8-4.44 0-8 3.59-8 8 0 4.44 3.56 8 8 8zm-1.25-5.5h.75v-2h-.75c-.44 0-.75-.31-.75-.75 0-.41.31-.75.75-.75h1.5c.41 0 .75.34.75.75v2.75h.25c.41 0 .75.34.75.75 0 .44-.34.75-.75.75h-2.5c-.44 0-.75-.31-.75-.75 0-.41.31-.75.75-.75zM24 6c-.56 0-1-.44-1-1 0-.53.44-1 1-1 .53 0 1 .47 1 1 0 .56-.47 1-1 1z"/><path fill="#FFF" d="M40 16c4.41 0 8-3.56 8-8 0-4.41-3.59-8-8-8-4.44 0-8 3.59-8 8 0 4.44 3.56 8 8 8zm-1.25-5.5h.75v-2h-.75c-.44 0-.75-.31-.75-.75 0-.41.31-.75.75-.75h1.5c.41 0 .75.34.75.75v2.75h.25c.41 0 .75.34.75.75 0 .44-.34.75-.75.75h-2.5c-.44 0-.75-.31-.75-.75 0-.41.31-.75.75-.75zM40 6c-.56 0-1-.44-1-1 0-.53.44-1 1-1 .53 0 1 .47 1 1 0 .56-.47 1-1 1z"/></svg>
