<svg xmlns="http://www.w3.org/2000/svg" width="36" height="14"><path fill="#EC7217" d="m6.706.293 5 5a1.004 1.004 0 0 1 0 1.414 1.007 1.007 0 0 1-1.413 0L7 3.413V13a.99.99 0 0 1-1 1 .99.99 0 0 1-1-1V3.413L1.706 6.707a1.007 1.007 0 0 1-1.413 0 1.006 1.006 0 0 1 0-1.414l5-5a1.007 1.007 0 0 1 1.413 0z"/><path fill="#505759" d="m18.706.293 5 5a1.004 1.004 0 0 1 0 1.414 1.007 1.007 0 0 1-1.413 0L19 3.413V13a.99.99 0 0 1-1 1 .99.99 0 0 1-1-1V3.413l-3.294 3.294a1.007 1.007 0 0 1-1.413 0 1.006 1.006 0 0 1 0-1.414l5-5a1.007 1.007 0 0 1 1.413 0z"/><path fill="#FFF" d="m30.706.293 5 5a1.004 1.004 0 0 1 0 1.414 1.007 1.007 0 0 1-1.413 0L31 3.413V13a.99.99 0 0 1-1 1 .99.99 0 0 1-1-1V3.413l-3.294 3.294a1.007 1.007 0 0 1-1.413 0 1.006 1.006 0 0 1 0-1.414l5-5a1.007 1.007 0 0 1 1.413 0z"/></svg>
